<svg width="24" height="24" viewBox="0 0 24 24" fill="none" xmlns="http://www.w3.org/2000/svg">
<path d="M11.75 5.38656L11.2226 5.88667C11.2909 5.95648 11.3728 6.01201 11.4634 6.04993C11.5541 6.08786 11.6515 6.10741 11.75 6.10741C11.8485 6.10741 11.9459 6.08786 12.0366 6.04993C12.1272 6.01201 12.2091 5.95648 12.2774 5.88667L11.75 5.38656ZM9.23586 17.7182C7.75512 16.5689 6.13665 15.4465 4.85223 14.0231C3.59419 12.6266 2.71512 10.9984 2.71512 8.88445H1.25C1.25 11.4485 2.33419 13.4047 3.7573 14.981C5.15405 16.5294 6.93563 17.7701 8.32846 18.8511L9.23586 17.7182ZM2.71512 8.88445C2.71512 6.81668 3.90186 5.08168 5.52228 4.35171C7.09679 3.6429 9.21242 3.83044 11.2226 5.88667L12.2774 4.88741C9.89419 2.44744 7.12414 2.04446 4.91279 3.03988C2.75028 4.01413 1.25 6.27618 1.25 8.88445H2.71512ZM8.32846 18.8511C8.82953 19.2397 9.36674 19.6532 9.91079 19.9667C10.4548 20.2793 11.076 20.5342 11.75 20.5342V19.0915C11.4472 19.0915 11.0917 18.9761 10.6502 18.7213C10.2077 18.4674 9.74963 18.1173 9.23586 17.7182L8.32846 18.8511ZM15.1715 18.8511C16.5644 17.7691 18.346 16.5304 19.7427 14.981C21.1658 13.4037 22.25 11.4485 22.25 8.88445H20.7849C20.7849 10.9984 19.9058 12.6266 18.6478 14.0231C17.3633 15.4465 15.7449 16.5689 14.2641 17.7182L15.1715 18.8511ZM22.25 8.88445C22.25 6.27618 20.7507 4.01413 18.5872 3.03988C16.3759 2.04446 13.6078 2.44744 11.2226 4.88644L12.2774 5.88667C14.2876 3.8314 16.4032 3.6429 17.9777 4.35171C19.5981 5.08168 20.7849 6.81572 20.7849 8.88445H22.25ZM14.2641 17.7182C13.7504 18.1173 13.2923 18.4674 12.8498 18.7213C12.4083 18.9752 12.0528 19.0915 11.75 19.0915V20.5342C12.424 20.5342 13.0452 20.2793 13.5892 19.9667C14.1342 19.6532 14.6705 19.2397 15.1715 18.8511L14.2641 17.7182Z" fill="#CEB992"/>
</svg>
