<svg width="24" height="24" viewBox="0 0 24 24" fill="none" xmlns="http://www.w3.org/2000/svg">
<path d="M22.005 8.81387C22.005 15.3779 12.2723 20.691 11.8579 20.9105C11.7486 20.9692 11.6265 21 11.5025 21C11.3784 21 11.2563 20.9692 11.1471 20.9105C10.7326 20.691 1 15.3779 1 8.81387C1.00174 7.27247 1.61483 5.7947 2.70476 4.70476C3.7947 3.61483 5.27247 3.00174 6.81387 3C8.75027 3 10.4457 3.8327 11.5025 5.24022C12.5593 3.8327 14.2547 3 16.1911 3C17.7325 3.00174 19.2103 3.61483 20.3002 4.70476C21.3901 5.7947 22.0032 7.27247 22.005 8.81387Z" fill="#CEB992"/>
</svg>
