<svg aria-hidden="true" xmlns="http://www.w3.org/2000/svg" xmlns:xlink="http://www.w3.org/1999/xlink"><symbol id="arrow" viewBox="0 0 12 7" xmlns="http://www.w3.org/2000/svg">
<path d="M1 1L6 6L11 1" stroke-linecap="square"/>
</symbol><symbol id="bag" viewBox="0 0 20 20" xmlns="http://www.w3.org/2000/svg">
<path d="M18.4615 5.06H14.6154C14.6154 3.85061 14.1291 2.69076 13.2636 1.83559C12.398 0.980427 11.2241 0.5 10 0.5C8.77592 0.5 7.60198 0.980427 6.73643 1.83559C5.87088 2.69076 5.38462 3.85061 5.38462 5.06H1.53846C1.13044 5.06 0.739122 5.22014 0.450605 5.5052C0.162087 5.79025 0 6.17687 0 6.58V17.98C0 18.3831 0.162087 18.7697 0.450605 19.0548C0.739122 19.3399 1.13044 19.5 1.53846 19.5H18.4615C18.8696 19.5 19.2609 19.3399 19.5494 19.0548C19.8379 18.7697 20 18.3831 20 17.98V6.58C20 6.17687 19.8379 5.79025 19.5494 5.5052C19.2609 5.22014 18.8696 5.06 18.4615 5.06ZM10 2.02C10.8161 2.02 11.5987 2.34028 12.1757 2.9104C12.7527 3.48051 13.0769 4.25374 13.0769 5.06H6.92308C6.92308 4.25374 7.24725 3.48051 7.82429 2.9104C8.40132 2.34028 9.18395 2.02 10 2.02ZM18.4615 17.98H1.53846V6.58H5.38462V8.1C5.38462 8.30156 5.46566 8.49487 5.60992 8.6374C5.75418 8.77993 5.94983 8.86 6.15385 8.86C6.35786 8.86 6.55352 8.77993 6.69777 8.6374C6.84203 8.49487 6.92308 8.30156 6.92308 8.1V6.58H13.0769V8.1C13.0769 8.30156 13.158 8.49487 13.3022 8.6374C13.4465 8.77993 13.6421 8.86 13.8462 8.86C14.0502 8.86 14.2458 8.77993 14.3901 8.6374C14.5343 8.49487 14.6154 8.30156 14.6154 8.1V6.58H18.4615V17.98Z"/>
</symbol><symbol id="call" viewBox="0 0 24 24" xmlns="http://www.w3.org/2000/svg">
<path fill-rule="evenodd" clip-rule="evenodd" d="M4.48303 3.7933C5.70003 2.5833 7.70403 2.7983 8.72303 4.1603L9.98503 5.8443C10.815 6.9523 10.741 8.5003 9.75603 9.4793L9.51803 9.7173C9.49115 9.81722 9.48841 9.9221 9.51003 10.0233C9.57303 10.4313 9.91403 11.2953 11.342 12.7153C12.77 14.1353 13.64 14.4753 14.054 14.5393C14.1582 14.5615 14.2662 14.5584 14.369 14.5303L14.777 14.1243C15.653 13.2543 16.997 13.0913 18.081 13.6803L19.991 14.7203C21.628 15.6083 22.041 17.8323 20.701 19.1653L19.28 20.5773C18.832 21.0223 18.23 21.3933 17.496 21.4623C15.686 21.6313 11.469 21.4153 7.03603 17.0083C2.89903 12.8943 2.10503 9.3063 2.00403 7.5383C1.95403 6.6443 2.37603 5.8883 2.91403 5.3543L4.48303 3.7933ZM7.52303 5.0593C7.01603 4.3823 6.07203 4.3283 5.54003 4.8573L3.97003 6.4173C3.64003 6.7453 3.48203 7.1073 3.50203 7.4533C3.58203 8.8583 4.22203 12.0953 8.09403 15.9453C12.156 19.9833 15.907 20.1043 17.357 19.9683C17.653 19.9413 17.947 19.7873 18.222 19.5143L19.642 18.1013C20.22 17.5273 20.093 16.4813 19.275 16.0373L17.365 14.9983C16.837 14.7123 16.219 14.8063 15.835 15.1883L15.38 15.6413L14.85 15.1093C15.38 15.6413 15.379 15.6423 15.378 15.6423L15.377 15.6443L15.374 15.6473L15.367 15.6533L15.352 15.6673C15.3095 15.7061 15.264 15.7415 15.216 15.7733C15.136 15.8263 15.03 15.8853 14.897 15.9343C14.627 16.0353 14.269 16.0893 13.827 16.0213C12.96 15.8883 11.811 15.2973 10.284 13.7793C8.75803 12.2613 8.16203 11.1193 8.02803 10.2533C7.95903 9.8113 8.01403 9.4533 8.11603 9.1833C8.17259 9.03156 8.25293 8.88979 8.35403 8.7633L8.38603 8.7283L8.40003 8.7133L8.40603 8.7073L8.40903 8.7043L8.41103 8.7023L8.69903 8.4163C9.12703 7.9893 9.18703 7.2823 8.78403 6.7433L7.52303 5.0593Z"/>
</symbol><symbol id="cart" viewBox="0 0 24 24" xmlns="http://www.w3.org/2000/svg">
<path d="M20.4615 6.56H16.6154C16.6154 5.35061 16.1291 4.19076 15.2636 3.33559C14.398 2.48043 13.2241 2 12 2C10.7759 2 9.60198 2.48043 8.73643 3.33559C7.87088 4.19076 7.38462 5.35061 7.38462 6.56H3.53846C3.13044 6.56 2.73912 6.72014 2.4506 7.0052C2.16209 7.29025 2 7.67687 2 8.08V19.48C2 19.8831 2.16209 20.2697 2.4506 20.5548C2.73912 20.8399 3.13044 21 3.53846 21H20.4615C20.8696 21 21.2609 20.8399 21.5494 20.5548C21.8379 20.2697 22 19.8831 22 19.48V8.08C22 7.67687 21.8379 7.29025 21.5494 7.0052C21.2609 6.72014 20.8696 6.56 20.4615 6.56ZM12 3.52C12.8161 3.52 13.5987 3.84028 14.1757 4.4104C14.7527 4.98051 15.0769 5.75374 15.0769 6.56H8.92308C8.92308 5.75374 9.24725 4.98051 9.82429 4.4104C10.4013 3.84028 11.1839 3.52 12 3.52ZM20.4615 19.48H3.53846V8.08H7.38462V9.6C7.38462 9.80156 7.46566 9.99487 7.60992 10.1374C7.75418 10.2799 7.94983 10.36 8.15385 10.36C8.35786 10.36 8.55352 10.2799 8.69777 10.1374C8.84203 9.99487 8.92308 9.80156 8.92308 9.6V8.08H15.0769V9.6C15.0769 9.80156 15.158 9.99487 15.3022 10.1374C15.4465 10.2799 15.6421 10.36 15.8462 10.36C16.0502 10.36 16.2458 10.2799 16.3901 10.1374C16.5343 9.99487 16.6154 9.80156 16.6154 9.6V8.08H20.4615V19.48Z"/>
</symbol><symbol id="clock" viewBox="0 0 24 24" xmlns="http://www.w3.org/2000/svg">
<path d="M12 2.25C10.0716 2.25 8.18657 2.82183 6.58319 3.89317C4.97982 4.96451 3.73013 6.48726 2.99218 8.26884C2.25422 10.0504 2.06114 12.0108 2.43735 13.9021C2.81355 15.7934 3.74215 17.5307 5.10571 18.8943C6.46928 20.2579 8.20656 21.1865 10.0979 21.5627C11.9892 21.9389 13.9496 21.7458 15.7312 21.0078C17.5127 20.2699 19.0355 19.0202 20.1068 17.4168C21.1782 15.8134 21.75 13.9284 21.75 12C21.7473 9.41498 20.7192 6.93661 18.8913 5.10872C17.0634 3.28084 14.585 2.25273 12 2.25ZM12 20.25C10.3683 20.25 8.77326 19.7661 7.41655 18.8596C6.05984 17.9531 5.00242 16.6646 4.378 15.1571C3.75358 13.6496 3.5902 11.9908 3.90853 10.3905C4.22685 8.79016 5.01259 7.32015 6.16637 6.16637C7.32016 5.01259 8.79017 4.22685 10.3905 3.90852C11.9909 3.59019 13.6497 3.75357 15.1571 4.37799C16.6646 5.00242 17.9531 6.05984 18.8596 7.41655C19.7661 8.77325 20.25 10.3683 20.25 12C20.2475 14.1873 19.3775 16.2843 17.8309 17.8309C16.2843 19.3775 14.1873 20.2475 12 20.25ZM18 12C18 12.1989 17.921 12.3897 17.7803 12.5303C17.6397 12.671 17.4489 12.75 17.25 12.75H12C11.8011 12.75 11.6103 12.671 11.4697 12.5303C11.329 12.3897 11.25 12.1989 11.25 12V6.75C11.25 6.55109 11.329 6.36032 11.4697 6.21967C11.6103 6.07902 11.8011 6 12 6C12.1989 6 12.3897 6.07902 12.5303 6.21967C12.671 6.36032 12.75 6.55109 12.75 6.75V11.25H17.25C17.4489 11.25 17.6397 11.329 17.7803 11.4697C17.921 11.6103 18 11.8011 18 12Z"/>
</symbol><symbol id="close" viewBox="0 0 24 24" xmlns="http://www.w3.org/2000/svg">
<g clip-path="url(#fclip0_139_9582)">
<path d="M19 6.41L17.59 5L12 10.59L6.41 5L5 6.41L10.59 12L5 17.59L6.41 19L12 13.41L17.59 19L19 17.59L13.41 12L19 6.41Z"/>
</g>
<defs>
<clipPath id="fclip0_139_9582">
<rect width="24" height="24"/>
</clipPath>
</defs>
</symbol><symbol viewBox="0 0 20 20" id="delete" xmlns="http://www.w3.org/2000/svg">
<g clip-path="url(#gclip0_259_22128)">
<path d="M1.42969 5.00001H18.5725M6.42969 5.00001V4.28572C6.42969 3.33852 6.80596 2.43011 7.47573 1.76034C8.14551 1.09057 9.05391 0.714294 10.0011 0.714294C10.9483 0.714294 11.8567 1.09057 12.5265 1.76034C13.1963 2.43011 13.5725 3.33852 13.5725 4.28572V5.00001M7.85826 9.28715V15.0043M12.144 9.28715V15.0043M3.57254 5.00001H16.4297V17.8572C16.4297 18.236 16.2792 18.5994 16.0113 18.8673C15.7434 19.1352 15.38 19.2857 15.0011 19.2857H5.00112C4.62224 19.2857 4.25887 19.1352 3.99096 18.8673C3.72305 18.5994 3.57254 18.236 3.57254 17.8572V5.00001Z" stroke-linecap="round" stroke-linejoin="round"/>
</g>
<defs>
<clipPath id="gclip0_259_22128">
<rect width="20" height="20"/>
</clipPath>
</defs>
</symbol><symbol id="delivery" viewBox="0 0 24 24" xmlns="http://www.w3.org/2000/svg">
<path d="M2 3V2.25C1.80109 2.25 1.61032 2.32902 1.46967 2.46967C1.32902 2.61032 1.25 2.80109 1.25 3H2ZM13 3H13.75C13.75 2.80109 13.671 2.61032 13.5303 2.46967C13.3897 2.32902 13.1989 2.25 13 2.25V3ZM13 9V8.25C12.8011 8.25 12.6103 8.32902 12.4697 8.46967C12.329 8.61032 12.25 8.80109 12.25 9H13ZM2 3.75H13V2.25H2V3.75ZM12.25 3V19H13.75V3H12.25ZM2.75 17V3H1.25V17H2.75ZM13 9.75H18V8.25H13V9.75ZM21.25 13V17H22.75V13H21.25ZM13.75 19V9H12.25V19H13.75ZM18.884 19.884C18.7679 20.0001 18.6301 20.0922 18.4784 20.1551C18.3268 20.2179 18.1642 20.2502 18 20.2502C17.8358 20.2502 17.6732 20.2179 17.5216 20.1551C17.3699 20.0922 17.2321 20.0001 17.116 19.884L16.056 20.944C16.5717 21.4597 17.2712 21.7494 18.0005 21.7494C18.7298 21.7494 19.4293 21.4597 19.945 20.944L18.884 19.884ZM17.116 18.116C17.2321 17.9999 17.3699 17.9078 17.5216 17.8449C17.6732 17.7821 17.8358 17.7498 18 17.7498C18.1642 17.7498 18.3268 17.7821 18.4784 17.8449C18.6301 17.9078 18.7679 17.9999 18.884 18.116L19.944 17.056C19.4283 16.5403 18.7288 16.2506 17.9995 16.2506C17.2702 16.2506 16.5707 16.5403 16.055 17.056L17.116 18.116ZM6.884 19.884C6.76792 20.0001 6.63011 20.0922 6.47843 20.1551C6.32675 20.2179 6.16418 20.2502 6 20.2502C5.83582 20.2502 5.67325 20.2179 5.52157 20.1551C5.36989 20.0922 5.23208 20.0001 5.116 19.884L4.056 20.944C4.57172 21.4597 5.27118 21.7494 6.0005 21.7494C6.72982 21.7494 7.42928 21.4597 7.945 20.944L6.884 19.884ZM5.116 18.116C5.23208 17.9999 5.36989 17.9078 5.52157 17.8449C5.67325 17.7821 5.83582 17.7498 6 17.7498C6.16418 17.7498 6.32675 17.7821 6.47843 17.8449C6.63011 17.9078 6.76792 17.9999 6.884 18.116L7.944 17.056C7.42828 16.5403 6.72882 16.2506 5.9995 16.2506C5.27018 16.2506 4.57072 16.5403 4.055 17.056L5.116 18.116ZM18.884 18.116C19.128 18.36 19.25 18.679 19.25 19H20.75C20.75 18.297 20.481 17.592 19.945 17.055L18.884 18.116ZM19.25 19C19.25 19.321 19.128 19.64 18.884 19.884L19.945 20.944C20.2007 20.689 20.4025 20.386 20.5408 20.0524C20.6792 19.7188 20.7502 19.3611 20.75 19H19.25ZM16 18.25H13V19.75H16V18.25ZM17.116 19.884C16.9997 19.7681 16.9074 19.6303 16.8446 19.4786C16.7818 19.3269 16.7496 19.1642 16.75 19H15.25C15.25 19.703 15.519 20.408 16.055 20.945L17.116 19.884ZM16.75 19C16.75 18.679 16.872 18.36 17.116 18.116L16.055 17.056C15.7993 17.311 15.5975 17.614 15.4592 17.9476C15.3208 18.2812 15.2498 18.6389 15.25 19H16.75ZM5.116 19.884C4.99967 19.7681 4.90743 19.6303 4.84461 19.4786C4.7818 19.3269 4.74964 19.1642 4.75 19H3.25C3.25 19.703 3.519 20.408 4.055 20.945L5.116 19.884ZM4.75 19C4.75 18.679 4.872 18.36 5.116 18.116L4.056 17.056C3.80034 17.3111 3.59754 17.6141 3.45923 17.9477C3.32092 18.2813 3.24982 18.6389 3.25 19H4.75ZM13 18.25H8V19.75H13V18.25ZM6.884 18.116C7.128 18.36 7.25 18.679 7.25 19H8.75C8.75 18.297 8.481 17.592 7.945 17.055L6.884 18.116ZM7.25 19C7.25 19.321 7.128 19.64 6.884 19.884L7.944 20.944C8.19966 20.6889 8.40246 20.3859 8.54077 20.0523C8.67908 19.7187 8.75018 19.3611 8.75 19H7.25ZM21.25 17C21.25 17.69 20.69 18.25 20 18.25V19.75C20.7293 19.75 21.4288 19.4603 21.9445 18.9445C22.4603 18.4288 22.75 17.7293 22.75 17H21.25ZM18 9.75C18.862 9.75 19.6886 10.0924 20.2981 10.7019C20.9076 11.3114 21.25 12.138 21.25 13H22.75C22.75 11.7402 22.2496 10.532 21.3588 9.64124C20.468 8.75045 19.2598 8.25 18 8.25V9.75ZM1.25 17C1.25 17.7293 1.53973 18.4288 2.05546 18.9445C2.57118 19.4603 3.27065 19.75 4 19.75V18.25C3.31 18.25 2.75 17.69 2.75 17H1.25Z"/>
</symbol><symbol id="eye" viewBox="0 0 24 24" xmlns="http://www.w3.org/2000/svg">
<g clip-path="url(#iclip0_190_28384)">
<path d="M22.4151 11.6867C20.1684 7.53335 16.2284 5.02002 11.8684 5.02002C7.50844 5.02002 3.56177 7.53335 1.3351 11.6867L1.14844 12L1.32177 12.32C3.56844 16.4734 7.50844 18.9867 11.8684 18.9867C16.2284 18.9867 20.1751 16.5067 22.4151 12.32L22.5884 12L22.4151 11.6867ZM11.8684 17.62C8.1151 17.62 4.66844 15.5267 2.66844 12C4.66844 8.47335 8.1151 6.38002 11.8684 6.38002C15.6218 6.38002 19.0284 8.48002 21.0618 12C19.0284 15.5267 15.6151 17.62 11.8684 17.62Z"/>
<path d="M12.0595 7.44666C11.1556 7.45325 10.2739 7.72757 9.52577 8.23498C8.77767 8.74238 8.19671 9.4601 7.85627 10.2975C7.51583 11.1349 7.43118 12.0544 7.61302 12.9398C7.79485 13.8253 8.23502 14.637 8.87791 15.2725C9.52081 15.9079 10.3376 16.3386 11.2251 16.5101C12.1127 16.6816 13.0311 16.5863 13.8645 16.2361C14.6978 15.886 15.4087 15.2967 15.9074 14.5427C16.406 13.7888 16.6701 12.9039 16.6662 12C16.6635 11.3983 16.5422 10.803 16.3091 10.2483C16.076 9.69353 15.7358 9.19025 15.3078 8.76726C14.8799 8.34427 14.3727 8.00988 13.8152 7.78327C13.2578 7.55665 12.6612 7.44226 12.0595 7.44666ZM12.0595 15.26C11.421 15.2534 10.7987 15.0583 10.2707 14.6992C9.74272 14.3401 9.33263 13.833 9.09192 13.2415C8.85121 12.6501 8.79062 12.0008 8.91777 11.375C9.04491 10.7493 9.35411 10.1751 9.80654 9.72446C10.259 9.27388 10.8345 8.96702 11.4607 8.84243C12.087 8.71785 12.7361 8.78108 13.3265 9.0242C13.9169 9.26732 14.4224 9.67949 14.7793 10.2089C15.1363 10.7384 15.3288 11.3615 15.3328 12C15.3346 12.4297 15.2511 12.8555 15.087 13.2527C14.923 13.6499 14.6817 14.0106 14.3772 14.3139C14.0727 14.6171 13.7111 14.8569 13.3132 15.0193C12.9154 15.1817 12.4892 15.2635 12.0595 15.26Z"/>
</g>
<defs>
<clipPath id="iclip0_190_28384">
<rect width="24" height="24"/>
</clipPath>
</defs>
</symbol><symbol id="favorite" viewBox="0 0 24 24" xmlns="http://www.w3.org/2000/svg">
<path d="M12 5.49999L11.46 6.01999C11.53 6.09257 11.6138 6.15031 11.7066 6.18974C11.7994 6.22918 11.8992 6.24951 12 6.24951C12.1008 6.24951 12.2006 6.22918 12.2934 6.18974C12.3862 6.15031 12.47 6.09257 12.54 6.01999L12 5.49999ZM9.426 18.322C7.91 17.127 6.253 15.96 4.938 14.48C3.65 13.028 2.75 11.335 2.75 9.13699H1.25C1.25 11.803 2.36 13.837 3.817 15.476C5.247 17.086 7.071 18.376 8.497 19.5L9.426 18.322ZM2.75 9.13699C2.75 6.98699 3.965 5.18299 5.624 4.42399C7.236 3.68699 9.402 3.88199 11.46 6.01999L12.54 4.98099C10.1 2.44399 7.264 2.02499 5 3.05999C2.786 4.07299 1.25 6.42499 1.25 9.13699H2.75ZM8.497 19.5C9.01 19.904 9.56 20.334 10.117 20.66C10.674 20.985 11.31 21.25 12 21.25V19.75C11.69 19.75 11.326 19.63 10.874 19.365C10.421 19.101 9.952 18.737 9.426 18.322L8.497 19.5ZM15.503 19.5C16.929 18.375 18.753 17.087 20.183 15.476C21.64 13.836 22.75 11.803 22.75 9.13699H21.25C21.25 11.335 20.35 13.028 19.062 14.48C17.747 15.96 16.09 17.127 14.574 18.322L15.503 19.5ZM22.75 9.13699C22.75 6.42499 21.215 4.07299 19 3.05999C16.736 2.02499 13.902 2.44399 11.46 4.97999L12.54 6.01999C14.598 3.88299 16.764 3.68699 18.376 4.42399C20.035 5.18299 21.25 6.98599 21.25 9.13699H22.75ZM14.574 18.322C14.048 18.737 13.579 19.101 13.126 19.365C12.674 19.629 12.31 19.75 12 19.75V21.25C12.69 21.25 13.326 20.985 13.883 20.66C14.441 20.334 14.99 19.904 15.503 19.5L14.574 18.322Z"/>
</symbol><symbol viewBox="0 0 24 24" id="favourite-full" xmlns="http://www.w3.org/2000/svg">
<path d="M22.005 8.81387C22.005 15.3779 12.2723 20.691 11.8579 20.9105C11.7486 20.9692 11.6265 21 11.5025 21C11.3784 21 11.2563 20.9692 11.1471 20.9105C10.7326 20.691 1 15.3779 1 8.81387C1.00174 7.27247 1.61483 5.7947 2.70476 4.70476C3.7947 3.61483 5.27247 3.00174 6.81387 3C8.75027 3 10.4457 3.8327 11.5025 5.24022C12.5593 3.8327 14.2547 3 16.1911 3C17.7325 3.00174 19.2103 3.61483 20.3002 4.70476C21.3901 5.7947 22.0032 7.27247 22.005 8.81387Z"/>
</symbol><symbol id="link" viewBox="0 0 48 48" xmlns="http://www.w3.org/2000/svg">
<path d="M35.4281 22.3307V36.0456C35.4314 36.5678 35.3305 37.0854 35.1314 37.5682C34.9323 38.051 34.639 38.4893 34.2686 38.8574C33.8982 39.2256 33.4581 39.5162 32.9741 39.7123C32.49 39.9085 31.9718 40.0061 31.4496 39.9997H11.9771C11.453 40.006 10.9329 39.9073 10.4475 39.7096C9.96204 39.5119 9.52106 39.219 9.1505 38.8483C8.77994 38.4776 8.48728 38.0366 8.28975 37.5511C8.09222 37.0656 7.9938 36.5455 8.0003 36.0214V16.55C7.99404 16.0258 8.09267 15.5057 8.29039 15.0201C8.48811 14.5346 8.78094 14.0936 9.15163 13.7229C9.52233 13.3522 9.96342 13.0594 10.4489 12.8617C10.9345 12.664 11.4546 12.5654 11.9789 12.5716H25.6928M40 8L21.7142 26.2848M40 8H30.8562M40 8V17.1433" stroke-width="1.5" stroke-linecap="round" stroke-linejoin="round"/>
</symbol><symbol viewBox="0 0 15 16" id="logout" xmlns="http://www.w3.org/2000/svg">
<g clip-path="url(#mclip0_346_29605)">
<path fill-rule="evenodd" clip-rule="evenodd" d="M3 1.5C2.73478 1.5 2.48043 1.60536 2.29289 1.79289C2.10536 1.98043 2 2.23478 2 2.5V13.5C2 13.7652 2.10536 14.0196 2.29289 14.2071C2.48043 14.3946 2.73478 14.5 3 14.5H10.5C10.6326 14.5 10.7598 14.4473 10.8536 14.3536C10.9473 14.2598 11 14.1326 11 14C11 13.8674 10.9473 13.7402 10.8536 13.6464C10.7598 13.5527 10.6326 13.5 10.5 13.5H3V2.5H10.5C10.6326 2.5 10.7598 2.44732 10.8536 2.35355C10.9473 2.25979 11 2.13261 11 2C11 1.86739 10.9473 1.74021 10.8536 1.64645C10.7598 1.55268 10.6326 1.5 10.5 1.5H3ZM12.604 5.396C12.5101 5.30211 12.3828 5.24937 12.25 5.24937C12.1172 5.24937 11.9899 5.30211 11.896 5.396C11.8021 5.48989 11.7494 5.61722 11.7494 5.75C11.7494 5.88278 11.8021 6.01011 11.896 6.104L13.293 7.5H6.5C6.36739 7.5 6.24021 7.55268 6.14645 7.64645C6.05268 7.74021 6 7.86739 6 8C6 8.13261 6.05268 8.25979 6.14645 8.35355C6.24021 8.44732 6.36739 8.5 6.5 8.5H13.293L11.896 9.896C11.8021 9.98989 11.7494 10.1172 11.7494 10.25C11.7494 10.3828 11.8021 10.5101 11.896 10.604C11.9899 10.6979 12.1172 10.7506 12.25 10.7506C12.3828 10.7506 12.5101 10.6979 12.604 10.604L14.854 8.354C14.9006 8.30755 14.9375 8.25238 14.9627 8.19163C14.9879 8.13089 15.0009 8.06577 15.0009 8C15.0009 7.93423 14.9879 7.86911 14.9627 7.80837C14.9375 7.74762 14.9006 7.69245 14.854 7.646L12.604 5.396Z"/>
</g>
<defs>
<clipPath id="mclip0_346_29605">
<rect width="15" height="15" transform="translate(0 0.5)"/>
</clipPath>
</defs>
</symbol><symbol id="mail" viewBox="0 0 24 24" xmlns="http://www.w3.org/2000/svg">
<path d="M3 9.057V16.5C3 17.2956 3.31607 18.0587 3.87868 18.6213C4.44129 19.1839 5.20435 19.5 6 19.5H18C18.7956 19.5 19.5587 19.1839 20.1213 18.6213C20.6839 18.0587 21 17.2956 21 16.5V7.5C21 6.70435 20.6839 5.94129 20.1213 5.37868C19.5587 4.81607 18.7956 4.5 18 4.5H6C5.20435 4.5 4.44129 4.81607 3.87868 5.37868C3.31607 5.94129 3 6.70435 3 7.5V9.057ZM6 6H18C18.3978 6 18.7794 6.15804 19.0607 6.43934C19.342 6.72064 19.5 7.10218 19.5 7.5V8.61L12 12.648L4.5 8.61V7.5C4.5 7.10218 4.65804 6.72064 4.93934 6.43934C5.22064 6.15804 5.60218 6 6 6ZM4.5 10.314L11.6445 14.16C11.7538 14.2188 11.8759 14.2496 12 14.2496C12.1241 14.2496 12.2462 14.2188 12.3555 14.16L19.5 10.314V16.5C19.5 16.8978 19.342 17.2794 19.0607 17.5607C18.7794 17.842 18.3978 18 18 18H6C5.60218 18 5.22064 17.842 4.93934 17.5607C4.65804 17.2794 4.5 16.8978 4.5 16.5V10.314Z"/>
</symbol><symbol id="money" viewBox="0 0 38 38" xmlns="http://www.w3.org/2000/svg">
<path d="M23.3636 23.3333C23.3636 22.1231 19.9447 21.1429 15.7273 21.1429M23.3636 23.3333C23.3636 24.5436 19.9447 25.5238 15.7273 25.5238C11.5098 25.5238 8.09091 24.5436 8.09091 23.3333M23.3636 23.3333V28.7405C23.3636 29.988 19.9447 31 15.7273 31C11.5098 31 8.09091 29.9891 8.09091 28.7405V23.3333M23.3636 23.3333C27.5353 23.3333 31 22.2523 31 21.1429V10.1905M15.7273 21.1429C11.5098 21.1429 8.09091 22.1231 8.09091 23.3333M15.7273 21.1429C10.9076 21.1429 7 20.0619 7 18.9524V13.4762M15.7273 11.2857C10.9076 11.2857 7 12.266 7 13.4762M7 13.4762C7 14.6864 10.9076 15.6667 15.7273 15.6667C15.7273 16.7761 19.276 17.8571 23.4476 17.8571C27.6193 17.8571 31 16.7761 31 15.6667M31 10.1905C31 8.98024 27.6182 8 23.4476 8C19.2771 8 15.8953 8.98024 15.8953 10.1905M31 10.1905C31 11.4007 27.6182 12.381 23.4476 12.381C19.2771 12.381 15.8953 11.4007 15.8953 10.1905M15.8953 10.1905V21.3247" stroke-width="2"/>
</symbol><symbol id="parcel" viewBox="0 0 38 38" xmlns="http://www.w3.org/2000/svg">
<path d="M12.75 21.8H15.05C15.355 21.8 15.6475 21.6788 15.8632 21.4632C16.0788 21.2475 16.2 20.955 16.2 20.65C16.2 20.345 16.0788 20.0525 15.8632 19.8368C15.6475 19.6212 15.355 19.5 15.05 19.5H12.75C12.445 19.5 12.1525 19.6212 11.9368 19.8368C11.7212 20.0525 11.6 20.345 11.6 20.65C11.6 20.955 11.7212 21.2475 11.9368 21.4632C12.1525 21.6788 12.445 21.8 12.75 21.8ZM19.65 24.1H12.75C12.445 24.1 12.1525 24.2212 11.9368 24.4368C11.7212 24.6525 11.6 24.945 11.6 25.25C11.6 25.555 11.7212 25.8475 11.9368 26.0632C12.1525 26.2788 12.445 26.4 12.75 26.4H19.65C19.955 26.4 20.2475 26.2788 20.4632 26.0632C20.6788 25.8475 20.8 25.555 20.8 25.25C20.8 24.945 20.6788 24.6525 20.4632 24.4368C20.2475 24.2212 19.955 24.1 19.65 24.1ZM26.55 8H10.45C9.535 8 8.65748 8.36348 8.01048 9.01048C7.36348 9.65748 7 10.535 7 11.45V27.55C7 28.465 7.36348 29.3425 8.01048 29.9895C8.65748 30.6365 9.535 31 10.45 31H26.55C27.465 31 28.3425 30.6365 28.9895 29.9895C29.6365 29.3425 30 28.465 30 27.55V11.45C30 10.535 29.6365 9.65748 28.9895 9.01048C28.3425 8.36348 27.465 8 26.55 8ZM20.8 10.3V14.0835L19.0635 13.1175C18.8887 13.0166 18.6904 12.9634 18.4885 12.9634C18.2866 12.9634 18.0883 13.0166 17.9135 13.1175L16.2 14.0835V10.3H20.8ZM27.7 27.55C27.7 27.855 27.5788 28.1475 27.3632 28.3632C27.1475 28.5788 26.855 28.7 26.55 28.7H10.45C10.145 28.7 9.85249 28.5788 9.63683 28.3632C9.42116 28.1475 9.3 27.855 9.3 27.55V11.45C9.3 11.145 9.42116 10.8525 9.63683 10.6368C9.85249 10.4212 10.145 10.3 10.45 10.3H13.9V16.05C13.9012 16.2507 13.9549 16.4476 14.0558 16.6211C14.1567 16.7946 14.3012 16.9387 14.475 17.039C14.6498 17.1399 14.8481 17.1931 15.05 17.1931C15.2519 17.1931 15.4502 17.1399 15.625 17.039L18.5 15.4405L21.3865 17.0505C21.5584 17.1479 21.7524 17.1994 21.95 17.2C22.255 17.2 22.5475 17.0788 22.7632 16.8632C22.9788 16.6475 23.1 16.355 23.1 16.05V10.3H26.55C26.855 10.3 27.1475 10.4212 27.3632 10.6368C27.5788 10.8525 27.7 11.145 27.7 11.45V27.55Z"/>
</symbol><symbol id="payment" viewBox="0 0 24 24" xmlns="http://www.w3.org/2000/svg">
<path d="M15.6429 14.1429C15.4724 14.1429 15.3089 14.2106 15.1883 14.3311C15.0678 14.4517 15.0001 14.6152 15.0001 14.7857C15.0001 14.9562 15.0678 15.1197 15.1883 15.2403C15.3089 15.3608 15.4724 15.4286 15.6429 15.4286H18.6429C18.8134 15.4286 18.9769 15.3608 19.0975 15.2403C19.218 15.1197 19.2858 14.9562 19.2858 14.7857C19.2858 14.6152 19.218 14.4517 19.0975 14.3311C18.9769 14.2106 18.8134 14.1429 18.6429 14.1429H15.6429ZM1.71777 7.5C1.71777 6.64752 2.05642 5.82995 2.65922 5.22716C3.26201 4.62436 4.07958 4.28571 4.93206 4.28571H19.0715C19.924 4.28571 20.7415 4.62436 21.3443 5.22716C21.9471 5.82995 22.2858 6.64752 22.2858 7.5V16.5C22.2858 17.3525 21.9471 18.17 21.3443 18.7728C20.7415 19.3756 19.924 19.7143 19.0715 19.7143H4.93292C4.08043 19.7143 3.26287 19.3756 2.66007 18.7728C2.05728 18.17 1.71863 17.3525 1.71863 16.5L1.71777 7.5ZM4.93206 5.57143C4.42057 5.57143 3.93003 5.77462 3.56835 6.13629C3.20668 6.49797 3.00349 6.98851 3.00349 7.5V8.14286H21.0001V7.5C21.0001 6.98851 20.7969 6.49797 20.4352 6.13629C20.0735 5.77462 19.583 5.57143 19.0715 5.57143H4.93206ZM3.00349 16.5C3.00349 17.0115 3.20668 17.502 3.56835 17.8637C3.93003 18.2254 4.42057 18.4286 4.93206 18.4286H19.0715C19.583 18.4286 20.0735 18.2254 20.4352 17.8637C20.7969 17.502 21.0001 17.0115 21.0001 16.5V9.42857H3.00435L3.00349 16.5Z"/>
</symbol><symbol id="ruler" viewBox="0 0 24 24" xmlns="http://www.w3.org/2000/svg">
<path d="M10.0474 8.35421C11.0398 8.35421 11.8168 7.85031 11.8168 7.20721C11.8168 6.56411 11.0398 6.06021 10.0474 6.06021C9.05542 6.06021 8.27837 6.56411 8.27837 7.20721C8.27837 7.85031 9.05542 8.35421 10.0474 8.35421ZM10.0474 6.63543C10.7313 6.63543 11.2421 6.93724 11.2421 7.20721C11.2421 7.47718 10.7313 7.77898 10.0474 7.77898C9.36386 7.77898 8.85311 7.47718 8.85311 7.20721C8.85311 6.93724 9.36348 6.63543 10.0474 6.63543ZM21.6126 10.8396H17.0944V7.20683C17.0944 4.88713 13.933 3 10.047 3C6.16143 3 3 4.88713 3 7.20683V16.7924C3 17.9348 3.74103 18.9997 5.08591 19.7909C5.57942 20.0816 6.13959 20.3262 6.75149 20.5176C7.27412 20.6817 7.82931 20.8048 8.40175 20.8853C8.93664 20.9613 9.4903 21 10.047 21H21.6126C21.7713 21 21.9 20.8711 21.9 20.7124V11.1272C21.9 10.9684 21.7713 10.8396 21.6126 10.8396ZM10.0474 3.57523C13.6161 3.57523 16.5201 5.20427 16.5201 7.20683C16.5201 9.20977 13.6165 10.8396 10.0474 10.8396C6.47869 10.8396 3.57512 9.20977 3.57512 7.20683C3.57512 5.20427 6.47869 3.57523 10.0474 3.57523ZM16.5197 8.86808V10.8396H13.587C14.884 10.3871 15.9204 9.69756 16.5197 8.86808ZM21.3253 20.4248H19.9635V18.6174C19.9635 18.4586 19.8348 18.3298 19.6762 18.3298C19.5175 18.3298 19.3888 18.4586 19.3888 18.6174V20.4248H18.3589V19.4638C18.3589 19.305 18.2301 19.1761 18.0715 19.1761C17.9129 19.1761 17.7841 19.305 17.7841 19.4638V20.4248H16.7542V19.4638C16.7542 19.305 16.6255 19.1761 16.4668 19.1761C16.3082 19.1761 16.1795 19.305 16.1795 19.4638V20.4248H15.1492V18.6174C15.1492 18.4586 15.0204 18.3298 14.8618 18.3298C14.7032 18.3298 14.5744 18.4586 14.5744 18.6174V20.4248H13.5445V19.4638C13.5445 19.305 13.4157 19.1761 13.2571 19.1761C13.0985 19.1761 12.9698 19.305 12.9698 19.4638V20.4248H11.9398V19.4638C11.9398 19.305 11.8111 19.1761 11.6525 19.1761C11.4938 19.1761 11.3651 19.305 11.3651 19.4638V20.4248H10.3352V18.6174C10.3352 18.4586 10.2064 18.3298 10.0478 18.3298C9.88917 18.3298 9.76043 18.4586 9.76043 18.6174V20.4152C9.4129 20.4067 9.06883 20.3822 8.7305 20.3427V19.3529C8.7305 19.1942 8.60176 19.0653 8.44313 19.0653C8.28451 19.0653 8.15576 19.1942 8.15576 19.3529V20.2572C7.80211 20.1958 7.45727 20.1188 7.12584 20.0229V18.9951C7.12584 18.8364 6.9971 18.7075 6.83847 18.7075C6.67984 18.7075 6.5511 18.8364 6.5511 18.9951V19.8419C6.18135 19.7065 5.83766 19.5493 5.52118 19.374V17.3327C5.52118 17.174 5.39243 17.0451 5.23381 17.0451C5.07518 17.0451 4.94644 17.174 4.94644 17.3327V19.0139C4.05981 18.3758 3.57627 17.5996 3.57627 16.7932V8.86808C4.65754 10.3641 7.15074 11.4148 10.0486 11.4148H21.3268V20.4248H21.3253Z"/>
</symbol><symbol id="search" viewBox="0 0 24 24" xmlns="http://www.w3.org/2000/svg">
<path d="M10.9444 18.8889C15.6082 18.8889 19.3889 15.1082 19.3889 10.4444C19.3889 5.78071 15.6082 2 10.9444 2C6.28071 2 2.5 5.78071 2.5 10.4444C2.5 15.1082 6.28071 18.8889 10.9444 18.8889Z" stroke-width="1.5" stroke-linecap="round" stroke-linejoin="round"/>
<path d="M21.4998 21L16.9609 16.4611" stroke-width="1.5" stroke-linecap="round" stroke-linejoin="round"/>
</symbol><symbol id="star" viewBox="0 0 38 38" xmlns="http://www.w3.org/2000/svg">
<path d="M18.6956 7.28363C18.8886 6.90546 19.429 6.90546 19.622 7.28363L22.587 13.0936C22.9532 13.8111 23.6403 14.3104 24.4358 14.4369L30.8777 15.4614C31.297 15.5281 31.464 16.042 31.164 16.3424L26.5546 20.9577C25.9853 21.5277 25.7229 22.3354 25.8484 23.1311L26.8647 29.5743C26.9308 29.9937 26.4937 30.3113 26.1152 30.1188L20.3014 27.1612C19.5835 26.796 18.7342 26.796 18.0162 27.1612L12.2024 30.1188C11.824 30.3113 11.3868 29.9937 11.453 29.5743L12.4692 23.1311C12.5947 22.3354 12.3323 21.5277 11.763 20.9577L7.15364 16.3424C6.85362 16.042 7.0206 15.5281 7.4399 15.4614L13.8818 14.4369C14.6773 14.3104 15.3644 13.8111 15.7306 13.0936L18.6956 7.28363Z" stroke-width="2"/>
</symbol><symbol id="user" viewBox="0 0 24 24" xmlns="http://www.w3.org/2000/svg">
<path d="M11.9998 14.25C8.26165 14.25 4.46765 16.275 3.76557 20.0972C3.68093 20.5579 3.94646 21 4.43758 21H19.562C20.0535 21 20.3191 20.5579 20.2344 20.0972C19.5319 16.275 15.7379 14.25 11.9998 14.25Z" stroke-width="1.5" stroke-miterlimit="10"/>
<path d="M15.9888 7C15.8334 9.20292 14.2444 11 12.5 11C10.7556 11 9.16382 9.20333 9.01118 7C8.8526 4.70833 10.3988 3 12.5 3C14.6012 3 16.1474 4.75 15.9888 7Z" stroke-width="1.5" stroke-linecap="round" stroke-linejoin="round"/>
</symbol></svg>