<svg width="48" height="48" viewBox="0 0 48 48" fill="none" xmlns="http://www.w3.org/2000/svg">
<path d="M35.4281 22.3307V36.0456C35.4314 36.5678 35.3305 37.0854 35.1314 37.5682C34.9323 38.051 34.639 38.4893 34.2686 38.8574C33.8982 39.2256 33.4581 39.5162 32.9741 39.7123C32.49 39.9085 31.9718 40.0061 31.4496 39.9997H11.9771C11.453 40.006 10.9329 39.9073 10.4475 39.7096C9.96204 39.5119 9.52106 39.219 9.1505 38.8483C8.77994 38.4776 8.48728 38.0366 8.28975 37.5511C8.09222 37.0656 7.9938 36.5455 8.0003 36.0214V16.55C7.99404 16.0258 8.09267 15.5057 8.29039 15.0201C8.48811 14.5346 8.78094 14.0936 9.15163 13.7229C9.52233 13.3522 9.96342 13.0594 10.4489 12.8617C10.9345 12.664 11.4546 12.5654 11.9789 12.5716H25.6928M40 8L21.7142 26.2848M40 8H30.8562M40 8V17.1433" stroke="#DDD7D2" stroke-width="1.5" stroke-linecap="round" stroke-linejoin="round"/>
</svg>
