<svg width="110" height="132" viewBox="0 0 110 132" fill="none" xmlns="http://www.w3.org/2000/svg">
<path d="M105.929 60.5286H81.6437C80.6663 60.5286 79.7289 60.9169 79.0378 61.608C78.3467 62.2991 77.9584 63.2365 77.9584 64.2139V64.4416C71.7801 63.0542 66.0503 60.1346 61.2965 55.9517C58.7669 53.2315 56.8179 50.0244 55.5686 46.5261C54.3193 43.0279 53.7958 39.3118 54.0301 35.6045C54.0301 31.4755 49.5183 27.1591 44.5638 26.5485C41.3967 26.1586 33.6256 26.7787 30.0769 40.9718C28.9237 46.9267 28.7181 53.0263 29.4676 59.0454H14.8739C12.6945 59.0165 10.5417 59.5254 8.60593 60.5271C6.67017 61.5288 5.01126 62.9923 3.77605 64.788C0.592208 69.2951 -1.96563 78.1592 3.90798 94.8187L10.5083 118.661C11.189 122.167 13.0685 125.327 15.8243 127.598C18.5802 129.87 22.0406 131.111 25.6119 131.11H43.4241C50.0286 131.11 67.4607 130.009 77.9591 125.694V126.947C77.9591 127.924 78.3474 128.862 79.0385 129.553C79.7296 130.244 80.667 130.632 81.6444 130.632H105.93C106.907 130.632 107.845 130.244 108.536 129.553C109.227 128.862 109.615 127.924 109.615 126.947V64.2139C109.615 63.7298 109.52 63.2506 109.335 62.8034C109.149 62.3562 108.878 61.9499 108.536 61.6077C108.193 61.2655 107.787 60.9941 107.34 60.8089C106.893 60.6237 106.413 60.5285 105.929 60.5286ZM43.4233 123.74H25.6111C23.7349 123.741 21.9179 123.083 20.4769 121.881C19.0359 120.68 18.0623 119.011 17.7258 117.165C17.7067 117.057 17.6814 116.95 17.6521 116.843L10.9761 92.7294C10.9515 92.6466 10.927 92.5638 10.8982 92.4822C5.57422 77.4507 8.35243 71.083 9.79461 69.0438C10.3499 68.2123 11.1069 67.5353 11.995 67.076C12.8831 66.6167 13.8732 66.3902 14.8727 66.4177H33.6517C34.187 66.4178 34.7158 66.3013 35.2016 66.0764C35.6873 65.8514 36.1181 65.5233 36.4642 65.1149C36.8103 64.7065 37.0632 64.2277 37.2054 63.7116C37.3477 63.1956 37.3758 62.6548 37.2878 62.1268C37.2687 62.0091 35.3491 50.2766 37.2279 42.7608C38.6003 37.2737 40.8245 33.9407 43.1791 33.8451C43.8741 33.8687 44.5532 34.0591 45.1591 34.4003C45.7651 34.7415 46.28 35.2234 46.6605 35.8055C46.4399 40.4494 47.1611 45.09 48.7809 49.4479C50.4006 53.8058 52.8853 57.7909 56.0855 61.1634C62.8092 67.8869 72.8759 70.8801 77.9584 72.0272V117.511C72.556 121.127 56.0366 123.74 43.4233 123.74ZM102.244 123.262H85.329V67.8991H102.244V123.262ZM39.1789 14.9959V4.57513C39.1789 3.59773 39.5671 2.66037 40.2583 1.96924C40.9494 1.27812 41.8868 0.889847 42.8642 0.889847C43.8415 0.889847 44.7789 1.27812 45.47 1.96924C46.1612 2.66037 46.5494 3.59773 46.5494 4.57513V14.9959C46.5494 15.9733 46.1612 16.9107 45.47 17.6018C44.7789 18.2929 43.8415 18.6812 42.8642 18.6812C41.8868 18.6812 40.9494 18.2929 40.2583 17.6018C39.5671 16.9107 39.1789 15.9733 39.1789 14.9959ZM58.6947 27.6713C58.1907 26.8339 58.0401 25.8306 58.2758 24.8821C58.5116 23.9336 59.1145 23.1176 59.9518 22.6136L68.882 17.2405C69.2968 16.9813 69.7591 16.8073 70.2419 16.7285C70.7246 16.6498 71.2182 16.668 71.6939 16.782C72.1696 16.896 72.6178 17.1036 73.0124 17.3926C73.407 17.6816 73.7401 18.0463 73.9924 18.4654C74.2446 18.8845 74.4109 19.3496 74.4815 19.8336C74.5522 20.3176 74.5257 20.8109 74.4038 21.2845C74.2819 21.7582 74.0668 22.2029 73.7713 22.5927C73.4757 22.9824 73.1055 23.3094 72.6823 23.5546L63.7533 28.929C62.9159 29.4329 61.9126 29.5836 60.9641 29.3478C60.0156 29.1121 59.1987 28.5087 58.6947 27.6713ZM11.7908 18.4981C12.2957 17.6617 13.1116 17.0597 14.0598 16.824C15.0079 16.5883 16.0108 16.7383 16.8485 17.241L25.7784 22.6141C26.2017 22.8593 26.5719 23.1863 26.8674 23.5761C27.163 23.9658 27.378 24.4105 27.5 24.8842C27.6219 25.3579 27.6483 25.8511 27.5777 26.3351C27.507 26.8191 27.3408 27.2842 27.0885 27.7033C26.8363 28.1224 26.5032 28.4871 26.1085 28.7761C25.7139 29.0651 25.2657 29.2727 24.79 29.3867C24.3144 29.5007 23.8208 29.5189 23.338 29.4402C22.8552 29.3615 22.393 29.1874 21.9782 28.9282L13.048 23.5551C12.2108 23.0511 11.6081 22.2352 11.3723 21.2869C11.1366 20.3386 11.2871 19.3355 11.7908 18.4981Z" fill="#CEB992"/>
</svg>
