<svg width="305" height="49" viewBox="0 0 305 49" fill="none" xmlns="http://www.w3.org/2000/svg">
<path d="M42.1311 7.33447H35.8715C36.4993 8.24973 37.1271 9.15885 37.7611 10.0741L16.2307 36.6842L15.9968 36.9729C14.9628 38.2321 13.9349 39.4914 12.907 40.7506C16.8708 38.6928 20.8531 36.5982 24.8601 34.4667C28.0115 32.7897 31.1444 31.1189 34.2465 29.4419C34.622 29.2331 34.9974 29.0304 35.3729 28.8277C35.7668 28.6188 36.1546 28.4038 36.5424 28.195C37.2502 28.4038 37.958 28.6188 38.6658 28.8277C39.3491 29.0304 40.0384 29.2392 40.7278 29.4419C43.2514 30.1975 45.7811 30.953 48.3108 31.7024C47.7876 30.9469 47.2583 30.1975 46.729 29.4419L46.3043 28.8277C45.5103 27.6974 44.7163 26.5672 43.9284 25.4308C41.8172 24.663 39.7122 23.889 37.601 23.1211L34.9051 24.577C32.4062 25.9959 29.9072 27.4087 27.4144 28.8277L26.3373 29.4419C24.2076 30.6459 22.078 31.856 19.9545 33.0661L22.8843 29.4419L23.3829 28.8277L38.1304 10.6024C38.4627 11.0876 38.7951 11.5729 39.1336 12.0582L48.7232 26.6716L50.1327 28.8277L50.5389 29.4419L51.6284 31.1066L55.4753 36.979H61.9011C55.3091 27.0954 48.7232 17.218 42.1311 7.33447Z" fill="#383532"/>
<path d="M49.8805 48.22H24.1585C10.839 48.22 0 37.4027 0 24.11C0 10.8172 10.839 0 24.1585 0H49.8805C63.2 0 74.039 10.8172 74.039 24.11C74.039 37.4027 63.2 48.22 49.8805 48.22ZM24.1585 0.614267C11.1776 0.614267 0.615504 11.1551 0.615504 24.11C0.615504 37.0649 11.1776 47.6057 24.1585 47.6057H49.8805C62.8615 47.6057 73.4235 37.0649 73.4235 24.11C73.4235 11.1551 62.8615 0.614267 49.8805 0.614267H24.1585Z" fill="#383532"/>
<path d="M305 9.2876C298.371 15.3873 291.742 21.4931 285.119 27.5928V38.926H279.395V28.5142L259.717 9.2876H266.629C271.904 14.472 277.185 19.6564 282.46 24.8408L284.67 27.1075C291.139 21.1675 297.614 15.2276 304.083 9.2876H305Z" fill="#383532"/>
<path d="M255.341 27.2488C254.873 26.2967 254.178 25.5043 253.255 24.8593C252.325 24.2204 251.168 23.7167 249.777 23.3543C248.386 22.9858 246.773 22.7032 244.945 22.5128L230.382 21.0447C229.373 20.9341 228.456 20.8113 227.625 20.6761C226.788 20.541 226.074 20.3383 225.477 20.068C224.874 19.7916 224.412 19.4353 224.086 18.9807C223.76 18.5323 223.593 17.9426 223.593 17.2055C223.593 16.4991 223.729 15.9094 224.006 15.4303C224.277 14.9573 224.726 14.5764 225.354 14.2877C225.982 14.0052 226.812 13.8025 227.847 13.698C228.887 13.5875 230.179 13.5322 231.737 13.5322H254.196V9.2876H231.287C229.293 9.2876 227.483 9.42274 225.846 9.69302C224.209 9.96944 222.806 10.4178 221.63 11.0444C220.454 11.671 219.55 12.5002 218.909 13.5322C218.269 14.5703 217.949 15.8357 217.949 17.3284C217.949 18.692 218.208 19.8469 218.725 20.799C219.242 21.7511 219.993 22.5496 220.977 23.1885C221.956 23.8273 223.138 24.331 224.517 24.6996C225.889 25.0681 227.44 25.3323 229.158 25.4981L243.597 26.9662C244.687 27.0768 245.659 27.2058 246.502 27.3532C247.346 27.5006 248.06 27.7156 248.632 27.9859C249.205 28.2562 249.642 28.6186 249.937 29.067C250.239 29.5154 250.386 30.1051 250.386 30.8422C250.386 31.7145 250.183 32.4086 249.777 32.9246C249.365 33.4406 248.78 33.8276 248.017 34.0917C247.253 34.3497 246.306 34.5094 245.173 34.577C244.04 34.6446 242.766 34.6814 241.351 34.6814H219.543V38.926H241.923C246.693 38.926 250.239 38.3179 252.559 37.0893C254.873 35.8669 256.037 33.7416 256.037 30.7194C256.037 29.3619 255.803 28.2009 255.341 27.2488Z" fill="#383532"/>
<path d="M184.078 34.6384V9.2876H178.391V38.926H211.609V34.6384H184.078Z" fill="#383532"/>
<path d="M143.165 34.6384V9.2876H137.484V38.926H170.697V34.6384H143.165Z" fill="#383532"/>
<path d="M111.171 9.2876H104.912C105.54 10.2029 106.167 11.112 106.801 12.0272L85.0371 38.926H85.8311L91.9246 31.3951H119.579L120.669 33.0597L124.516 38.9321H130.941C124.349 29.0486 117.763 19.1712 111.171 9.2876ZM92.4232 30.7808L107.171 12.5555C107.503 13.0408 107.835 13.526 108.174 14.0113L117.763 28.6247L119.173 30.7808H92.4232Z" fill="#383532"/>
</svg>
