<svg width="167" height="28" viewBox="0 0 167 28" fill="none" xmlns="http://www.w3.org/2000/svg">
<path d="M22.9846 4.84808H19.5697C19.9122 5.3474 20.2547 5.84336 20.6006 6.34268L8.85475 20.8597L8.72715 21.0172C8.16303 21.7042 7.60227 22.3912 7.0415 23.0781C9.20397 21.9555 11.3765 20.8128 13.5625 19.65C15.2817 18.7351 16.9909 17.8236 18.6832 16.9087C18.888 16.7948 19.0929 16.6842 19.2977 16.5736C19.5126 16.4597 19.7242 16.3424 19.9357 16.2285C20.3219 16.3424 20.708 16.4597 21.0942 16.5736C21.4669 16.6842 21.843 16.7982 22.2191 16.9087C23.5958 17.3209 24.9759 17.7331 26.3559 18.142C26.0705 17.7298 25.7817 17.3209 25.493 16.9087L25.2613 16.5736C24.8281 15.957 24.3949 15.3404 23.9651 14.7205C22.8134 14.3016 21.665 13.8793 20.5133 13.4604L19.0425 14.2547C17.6792 15.0288 16.3159 15.7995 14.956 16.5736L14.3684 16.9087C13.2065 17.5656 12.0447 18.2257 10.8863 18.8859L12.4846 16.9087L12.7566 16.5736L20.802 6.63088C20.9834 6.89561 21.1647 7.16035 21.3494 7.42509L26.5809 15.3974L27.3499 16.5736L27.5715 16.9087L28.1658 17.8169L30.2645 21.0206H33.7701C30.1738 15.6286 26.5809 10.24 22.9846 4.84808Z" fill="#A6222E"/>
<path d="M27.2121 27.1531H13.1796C5.9132 27.1531 0 21.2518 0 14C0 6.74818 5.9132 0.846863 13.1796 0.846863H27.2121C34.4785 0.846863 40.3918 6.74818 40.3918 14C40.3918 21.2518 34.4785 27.1531 27.2121 27.1531ZM13.1796 1.18197C6.09788 1.18197 0.335786 6.93249 0.335786 14C0.335786 21.0675 6.09788 26.818 13.1796 26.818H27.2121C34.2939 26.818 40.056 21.0675 40.056 14C40.056 6.93249 34.2939 1.18197 27.2121 1.18197H13.1796Z" fill="#A6222E"/>
<path d="M166.392 5.91376C162.775 9.24141 159.159 12.5724 155.546 15.9001V22.0829H152.423V16.4027L141.688 5.91376H145.459C148.337 8.7421 151.218 11.5704 154.095 14.3988L155.301 15.6353C158.83 12.3948 162.362 9.15429 165.891 5.91376H166.392Z" fill="#383532"/>
<path d="M139.301 15.7124C139.045 15.193 138.666 14.7607 138.162 14.4088C137.655 14.0603 137.024 13.7855 136.265 13.5878C135.506 13.3867 134.626 13.2326 133.629 13.1287L125.684 12.3278C125.134 12.2675 124.633 12.2004 124.18 12.1267C123.724 12.053 123.334 11.9424 123.008 11.795C122.679 11.6442 122.427 11.4498 122.249 11.2018C122.071 10.9572 121.981 10.6355 121.981 10.2333C121.981 9.84797 122.055 9.52626 122.206 9.26487C122.353 9.00684 122.599 8.79907 122.941 8.64156C123.284 8.48741 123.737 8.37683 124.301 8.31986C124.869 8.25954 125.574 8.22938 126.423 8.22938H138.676V5.91376H126.178C125.09 5.91376 124.103 5.98748 123.21 6.13493C122.317 6.28573 121.551 6.53036 120.91 6.87218C120.268 7.21399 119.775 7.66639 119.425 8.22938C119.076 8.79572 118.902 9.48605 118.902 10.3004C118.902 11.0443 119.043 11.6743 119.325 12.1937C119.607 12.7132 120.016 13.1488 120.554 13.4973C121.088 13.8458 121.732 14.1206 122.484 14.3217C123.233 14.5228 124.079 14.6669 125.016 14.7573L132.894 15.5583C133.488 15.6186 134.019 15.689 134.479 15.7694C134.939 15.8498 135.328 15.9671 135.641 16.1145C135.953 16.262 136.191 16.4597 136.352 16.7043C136.517 16.949 136.598 17.2707 136.598 17.6728C136.598 18.1487 136.487 18.5274 136.265 18.8088C136.04 19.0903 135.721 19.3015 135.305 19.4456C134.888 19.5863 134.371 19.6734 133.753 19.7103C133.136 19.7472 132.441 19.7673 131.668 19.7673H119.771V22.0829H131.98C134.583 22.0829 136.517 21.7511 137.783 21.0809C139.045 20.414 139.68 19.2545 139.68 17.6058C139.68 16.8652 139.552 16.2318 139.301 15.7124Z" fill="#383532"/>
<path d="M100.423 19.7438V5.91376H97.3206V22.0829H115.443V19.7438H100.423Z" fill="#383532"/>
<path d="M78.1035 19.7438V5.91376H75.0042V22.0829H93.1232V19.7438H78.1035Z" fill="#383532"/>
<path d="M60.6493 5.91376H57.2344C57.5769 6.41307 57.9194 6.90904 58.2653 7.40835L46.3918 22.0829H46.825L50.1493 17.9744H65.2362L65.8305 18.8826L67.9292 22.0862H71.4348C67.8385 16.6943 64.2456 11.3057 60.6493 5.91376ZM50.4213 17.6393L58.4667 7.69655C58.6481 7.96129 58.8294 8.22603 59.0141 8.49077L64.2456 16.4631L65.0146 17.6393H50.4213Z" fill="#383532"/>
</svg>
